# xmcd CD database file
#
# Track frame offsets:
#	151
#	19856
#	41591
#	61446
#	80839
#	98262
#	115689
#	136638
#	155397
#	168482
#	188657
#	208128
#
# Disc length: 3042 seconds
#
# Revision: 1
# Processed by: cddbd v1.5.1PL0 Copyright (c) Steve Scherf et al.
# Submitted via: CDex 1.51
#
DISCID=940be00c
DTITLE=Various Artist - Merengue Fiesta Hot
DYEAR=1900
DGENRE=Merengue
TTITLE0=Cintura - Los Cantantes
TTITLE1=La Pastilla - Elio Rodriguez
TTITLE2=Rechupaletea - Rikarena
TTITLE3=Una Mujer Chula - Los Cantantes
TTITLE4=Tarareando - Elio Rodriguez
TTITLE5=El Chivo - Los Cantantes
TTITLE6=Marinerito, Marineron - Papucho y su Grupo Wao
TTITLE7=Dame la Papa - Elio Rodriguez
TTITLE8=El Pollito - Freddy Gerardo
TTITLE9=El Inversionista - Elio Rodriguez
TTITLE10=La Dueña del Swing - Merengue Magico U.S.A.
TTITLE11=Morena Ven - Merengue Magico U.S.A.
EXTD=
EXTT0=
EXTT1=
EXTT2=
EXTT3=
EXTT4=
EXTT5=
EXTT6=
EXTT7=
EXTT8=
EXTT9=
EXTT10=
EXTT11=
PLAYORDER=
